HIERARCHY
ROOT root
{
	OFFSET 0.000000 0.000000 0.000000
	CHANNELS 6 Xposition Yposition Zposition Zrotation Yrotation Xrotation
	JOINT lhip
	{
		OFFSET 0.058581 -0.082280 -0.017664
		CHANNELS 3 Zrotation Yrotation Xrotation
		JOINT lknee
		{
			OFFSET 0.043451 -0.386469 0.008037
			CHANNELS 3 Zrotation Yrotation Xrotation
			JOINT lankle
			{
				OFFSET -0.014790 -0.426874 -0.037428
				CHANNELS 3 Zrotation Yrotation Xrotation
				JOINT ltoe
				{
					OFFSET 0.041054 -0.060286 0.122042
					CHANNELS 3 Zrotation Yrotation Xrotation
					End Site
					{
						OFFSET 0.000000 0.000000 0.000000
					}
				}
			}
		}
	}
	JOINT rhip
	{
		OFFSET -0.060310 -0.090513 -0.013543
		CHANNELS 3 Zrotation Yrotation Xrotation
		JOINT rknee
		{
			OFFSET -0.043257 -0.383688 -0.004843
			CHANNELS 3 Zrotation Yrotation Xrotation
			JOINT rankle
			{
				OFFSET 0.019056 -0.420046 -0.034562
				CHANNELS 3 Zrotation Yrotation Xrotation
				JOINT rtoe
				{
					OFFSET -0.034840 -0.062106 0.130323
					CHANNELS 3 Zrotation Yrotation Xrotation
					End Site
					{
						OFFSET 0.000000 0.000000 0.000000
					}
				}
			}
		}
	}
	JOINT lowerback
	{
		OFFSET 0.004439 0.124404 -0.038385
		CHANNELS 3 Zrotation Yrotation Xrotation
		JOINT upperback
		{
			OFFSET 0.004488 0.137956 0.026820
			CHANNELS 3 Zrotation Yrotation Xrotation
			JOINT chest
			{
				OFFSET -0.002265 0.056032 0.002855
				CHANNELS 3 Zrotation Yrotation Xrotation
				JOINT lowerneck
				{
					OFFSET -0.013390 0.211636 -0.033468
					CHANNELS 3 Zrotation Yrotation Xrotation
					JOINT upperneck
					{
						OFFSET 0.010113 0.088937 0.050410
						CHANNELS 3 Zrotation Yrotation Xrotation
						End Site
						{
							OFFSET 0.000000 0.000000 0.000000
						}
					}
				}
				JOINT lclavicle
				{
					OFFSET 0.071702 0.114000 -0.018898
					CHANNELS 3 Zrotation Yrotation Xrotation
					JOINT lshoulder
					{
						OFFSET 0.122921 0.045205 -0.019046
						CHANNELS 3 Zrotation Yrotation Xrotation
						JOINT lelbow
						{
							OFFSET 0.255332 -0.015649 -0.022946
							CHANNELS 3 Zrotation Yrotation Xrotation
							JOINT lwrist
							{
								OFFSET 0.265709 0.012698 -0.007375
								CHANNELS 3 Zrotation Yrotation Xrotation
								End Site
								{
									OFFSET 0.000000 0.000000 0.000000
								}
							}
						}
					}
				}
				JOINT rclavicle
				{
					OFFSET -0.082954 0.112472 -0.023707
					CHANNELS 3 Zrotation Yrotation Xrotation
					JOINT rshoulder
					{
						OFFSET -0.113228 0.046853 -0.008472
						CHANNELS 3 Zrotation Yrotation Xrotation
						JOINT relbow
						{
							OFFSET -0.260127 -0.014369 -0.031269
							CHANNELS 3 Zrotation Yrotation Xrotation
							JOINT rwrist
							{
								OFFSET -0.269108 0.006794 -0.006027
								CHANNELS 3 Zrotation Yrotation Xrotation
								End Site
								{
									OFFSET 0.000000 0.000000 0.000000
								}
							}
						}
					}
				}
			}
		}
	}
}
MOTION
Frames: 5
Frame Time: 0.033333
0.539762 0.300728 0.998168 83.958078 4.294316 102.537958 1.469522 3.843920 -9.826379 3.728063 -1.359322 -9.089829 1.795785 13.729835 0.512582 0.000000 -0.000000 0.000000 -3.705705 -0.117433 -16.722424 -2.604682 3.356236 -0.346348 7.452363 -7.518120 1.338834 0.000000 -0.000000 0.000000 -3.991490 2.351154 7.018027 2.022653 -5.508094 4.330715 2.892033 1.567496 -9.364900 -5.874923 12.133259 -3.819543 7.627040 15.940009 -2.213191 -10.620737 -35.038732 -0.617229 -34.937388 -24.462286 10.564696 9.509608 -15.283656 -22.484821 4.971699 8.756517 -29.007248 15.512784 40.173032 3.923487 54.005437 41.322402 24.897902 12.726857 46.260411 4.877060 -1.452962 -7.792205 -43.991285 
0.542221 0.301277 0.997617 84.179324 4.222813 102.294135 1.491516 3.724279 -9.475032 3.567253 -1.458205 -8.936944 2.126250 13.698825 0.277910 0.000000 -0.000000 0.000000 -3.854992 -0.233342 -16.246014 -2.580401 3.274154 -0.314842 7.514565 -7.585317 1.082242 0.000000 -0.000000 0.000000 -3.896294 2.352937 6.823282 1.952321 -5.419194 4.344925 2.701497 1.632608 -9.009698 -6.009541 11.166655 -3.548204 7.843415 16.614807 -2.195655 -11.924961 -32.464973 -0.140750 -35.223821 -22.301310 12.341397 10.114873 -24.850843 -22.551128 7.330955 10.519400 -29.653851 15.694383 37.183134 3.596236 52.050765 37.997440 24.956515 18.702824 53.961859 11.018650 -2.845189 -8.719550 -45.870706 
0.544450 0.301870 0.997066 84.534580 4.185038 102.197591 1.562896 3.531805 -9.371528 3.414743 -1.662443 -8.646532 2.378421 13.663855 -0.016674 0.000000 -0.000000 0.000000 -3.922238 -0.425010 -15.880998 -2.596794 3.291003 -0.349813 7.524583 -7.800775 0.879668 0.000000 -0.000000 0.000000 -3.745805 2.246711 6.611273 1.869008 -5.376356 4.217773 2.531289 1.648974 -8.499807 -6.140088 9.895156 -3.384026 8.037443 17.522358 -2.305920 -13.328291 -29.533676 0.439612 -35.664205 -19.592611 14.223557 11.277510 -35.408177 -22.169871 9.730229 12.247656 -30.691991 15.927342 33.732241 3.368266 49.900469 34.758394 25.129305 28.503317 60.399128 22.219779 -2.922451 -8.718377 -49.472011 
0.546907 0.302351 0.996602 84.781432 4.119543 102.608185 1.545916 3.294347 -9.765738 3.297565 -1.622231 -8.399070 2.540028 13.572405 -0.317317 0.000000 -0.000000 0.000000 -4.049109 -0.548762 -16.108451 -2.578000 3.100583 -0.320440 7.615962 -7.852551 0.713362 0.000000 -0.000000 0.000000 -3.842701 2.201773 5.788993 1.862579 -5.177554 4.395940 2.471692 1.671334 -8.264509 -6.264015 8.588255 -3.294928 8.166835 18.112501 -2.627015 -14.123755 -26.592630 0.873967 -36.867811 -16.651036 16.483512 12.715447 -45.570532 -22.023807 11.624811 14.206436 -31.974080 15.961164 30.384481 3.340490 47.684175 31.169455 24.993595 42.545368 65.403179 36.096957 -2.687396 -8.689919 -51.197074 
0.549057 0.302803 0.996060 84.812729 4.219999 102.675631 1.695931 3.190597 -9.696629 3.213041 -1.513751 -8.308069 2.689971 13.556096 -0.632865 0.000000 -0.000000 0.000000 -4.000781 -0.557104 -15.998593 -2.579222 3.019128 -0.376341 7.649652 -7.849178 0.630241 0.000000 -0.000000 0.000000 -3.777573 2.165365 5.605254 1.791775 -4.841365 4.346853 2.468970 1.940213 -7.805235 -6.419217 7.443220 -3.422645 8.041008 18.310573 -3.206920 -14.540999 -24.189264 1.084393 -38.164928 -13.515920 18.903955 14.486629 -54.633670 -22.967162 13.133895 16.142897 -33.618806 15.622525 27.893682 3.330957 45.383538 27.107078 24.995571 59.711621 68.724702 51.895577 -3.549779 -9.060023 -51.782207 
